<?xml version="1.0" encoding="UTF-8" standalone="no"?>
<svg version="1.1" viewBox="0 0 300 100" xmlns="http://www.w3.org/2000/svg"
     xmlns:xlink="http://www.w3.org/1999/xlink">

  <!-- Head -->
  <polygon points="268,40 290,50 268,60" />

  <!-- Tube -->
  <ellipse cx="1" cy="50" rx="1" ry="5" fill="#f4d4ad" />
  <path d="M1,45 a1,5 0 0 1 0,10 H270 a1,5 0 0 0 0,-10" fill="#cd9c71" />

  <!-- Colored strips -->
  <path d="M100,45 a1,5 0 0 1 0,10 h50 a1,5 0 0 0 0,-10" fill="#4c9fc1" />
  <path d="M118,45 a1,5 0 0 1 0,10 h14 a1,5 0 0 0 0,-10" fill="#fefcb0" />
  <path d="M123,45 a1,5 0 0 1 0,10 h4 a1,5 0 0 0 0,-10" fill="#ff4f5a" />
  <path d="M200,45 a1,5 0 0 1 0,10 h30 a1,5 0 0 0 0,-10" fill="#4c9fc1" />
  <path d="M208,45 a1,5 0 0 1 0,10 h14 a1,5 0 0 0 0,-10" fill="#fefcb0" />
  <path d="M213,45 a1,5 0 0 1 0,10 h4 a1,5 0 0 0 0,-10" fill="#ff4f5a" />

  <!-- Feather -->
  <g fill="#484035">
    <path d="M20,45 h70 l-20,-20 h-70 l20,20 z" />
    <path d="M20,55 h70 l-20,20 h-70 l20,-20 z" />
  </g>
  <g fill="#cec4b8">
    <path d="M30,45 h5 l-20,-20 h-5 l20,20 z" />
    <path d="M45,45 h5 l-20,-20 h-5 l20,20 z" />
    <path d="M60,45 h5 l-20,-20 h-5 l20,20 z" />
    <path d="M75,45 h5 l-20,-20 h-5 l20,20 z" />
    
    <path d="M30,55 h5 l-20,20 h-5 l20,-20 z" />
    <path d="M45,55 h5 l-20,20 h-5 l20,-20 z" />
    <path d="M60,55 h5 l-20,20 h-5 l20,-20 z" />
    <path d="M75,55 h5 l-20,20 h-5 l20,-20 z" />
  </g>

</svg>